name D:\school\WTK\thesis\model\3dpredictsim\Results\MidTarsalJoint\Fal_s1_bCst_PF_Gefen2002_ls150_MT_nl_Gefen2002_MTP_Mf1_spx10_PIM_w1e+03_w1e+04_ig21.mot
datacolumns 128
datarows 4
range 0.00000000 0.03346918
endheader
time	pelvis_tilt	pelvis_list	pelvis_rotation	pelvis_tx	pelvis_ty	pelvis_tz	hip_flexion_l	hip_adduction_l	hip_rotation_l	hip_flexion_r	hip_adduction_r	hip_rotation_r	knee_angle_l	knee_angle_r	ankle_angle_l	ankle_angle_r	subtalar_angle_l	subtalar_angle_r	mtj_angle_l	mtj_angle_r	mtp_angle_l	mtp_angle_r	lumbar_extension	lumbar_bending	lumbar_rotation	arm_flex_l	arm_add_l	arm_rot_l	arm_flex_r	arm_add_r	arm_rot_r	elbow_flex_l	elbow_flex_r	pro_sup_l	pro_sup_r	glut_med1_l/activation	glut_med2_l/activation	glut_med3_l/activation	glut_min1_l/activation	glut_min2_l/activation	glut_min3_l/activation	semimem_l/activation	semiten_l/activation	bifemlh_l/activation	bifemsh_l/activation	sar_l/activation	add_long_l/activation	add_brev_l/activation	add_mag1_l/activation	add_mag2_l/activation	add_mag3_l/activation	tfl_l/activation	pect_l/activation	grac_l/activation	glut_max1_l/activation	glut_max2_l/activation	glut_max3_l/activation	iliacus_l/activation	psoas_l/activation	quad_fem_l/activation	gem_l/activation	peri_l/activation	rect_fem_l/activation	vas_med_l/activation	vas_int_l/activation	vas_lat_l/activation	med_gas_l/activation	lat_gas_l/activation	soleus_l/activation	tib_post_l/activation	flex_dig_l/activation	flex_hal_l/activation	tib_ant_l/activation	per_brev_l/activation	per_long_l/activation	per_tert_l/activation	ext_dig_l/activation	ext_hal_l/activation	ercspn_l/activation	intobl_l/activation	extobl_l/activation	glut_med1_r/activation	glut_med2_r/activation	glut_med3_r/activation	glut_min1_r/activation	glut_min2_r/activation	glut_min3_r/activation	semimem_r/activation	semiten_r/activation	bifemlh_r/activation	bifemsh_r/activation	sar_r/activation	add_long_r/activation	add_brev_r/activation	add_mag1_r/activation	add_mag2_r/activation	add_mag3_r/activation	tfl_r/activation	pect_r/activation	grac_r/activation	glut_max1_r/activation	glut_max2_r/activation	glut_max3_r/activation	iliacus_r/activation	psoas_r/activation	quad_fem_r/activation	gem_r/activation	peri_r/activation	rect_fem_r/activation	vas_med_r/activation	vas_int_r/activation	vas_lat_r/activation	med_gas_r/activation	lat_gas_r/activation	soleus_r/activation	tib_post_r/activation	flex_dig_r/activation	flex_hal_r/activation	tib_ant_r/activation	per_brev_r/activation	per_long_r/activation	per_tert_r/activation	ext_dig_r/activation	ext_hal_r/activation	ercspn_r/activation	intobl_r/activation	extobl_r/activation	
          0.00000000	         -2.92735166	         -2.27493791	          4.74104381	          0.00000000	          0.91623624	         -0.00225789	        -14.17862237	          0.60235128	          7.19460284	         25.04710536	          4.18259038	         -1.69044424	        -13.18686909	         -4.10108175	        -14.26311411	         -3.47676874	         -6.75667637	         -8.19798209	         20.69253923	          3.43565162	         12.16139787	         -2.12105484	         -0.99697307	          0.79608482	         -1.72618756	          3.72179419	        -13.46647092	         13.75687918	         -7.15504432	        -13.45126311	          5.84899334	         33.61760265	         16.70568919	         86.51662706	         86.51662706	          0.35354926	          0.12691076	          0.08346032	          0.27189404	          0.21145302	          0.12149643	          0.05000922	          0.05000090	          0.05000081	          0.05000177	          0.09878054	          0.05000139	          0.05000193	          0.05000212	          0.05000550	          0.05000273	          0.29758407	          0.05001315	          0.05000357	          0.05036208	          0.05000715	          0.05000422	          0.29020582	          0.55750850	          0.05000147	          0.06176714	          0.07035515	          0.15633439	          0.05907690	          0.06107044	          0.06048012	          0.29566382	          0.38969461	          0.43336184	          0.42463050	          0.46163126	          0.55952384	          0.05000005	          0.05932938	          0.14093541	          0.05000067	          0.05000024	          0.05000114	          0.05000032	          0.07032242	          0.05069186	          0.05121758	          0.05068964	          0.05000135	          0.05935702	          0.05929761	          0.05000383	          0.14636724	          0.05929602	          0.05929630	          0.05000427	          0.05000401	          0.10081342	          0.26045326	          0.20507797	          0.17797560	          0.12276258	          0.05000126	          0.05113176	          0.06672326	          0.05006312	          0.05523295	          0.11230463	          0.05134866	          0.05039667	          0.34346203	          0.11697776	          0.05000690	          0.07035561	          0.10538466	          0.12159670	          0.09546566	          0.05000004	          0.05000010	          0.05000001	          0.06524988	          0.07032154	          0.07032296	          0.53046846	          0.05669810	          0.09015698	          0.18587804	          0.64688180	          0.12820550	          0.05000017	          0.12245553	          0.09976949	
          0.01115639	         -2.93017592	         -2.35653479	          4.87317915	          0.01680281	          0.91622975	         -0.00197570	        -14.16588151	          0.36855270	          6.99162191	         24.31741808	          4.49716893	         -1.46140067	        -14.86336179	         -4.44434510	        -14.49170627	         -4.25583784	         -5.58525254	         -8.51767609	         18.69470426	          3.29116442	         15.22157367	         -2.21338549	         -0.80990770	          1.02320949	         -1.79922225	          3.49879984	        -13.48030986	         14.23799549	         -7.99979391	        -13.45042093	          5.75798483	         34.47717143	         16.49208763	         86.51662706	         86.51662706	          0.30707558	          0.10701294	          0.07037493	          0.22926545	          0.17830034	          0.10244758	          0.05002362	          0.05119190	          0.05929700	          0.05000120	          0.08329407	          0.05000733	          0.05002115	          0.05929277	          0.05336468	          0.05933086	          0.25092758	          0.05000934	          0.05752687	          0.05909542	          0.05929330	          0.05929621	          0.24470560	          0.53230365	          0.05929718	          0.05770417	          0.05932454	          0.13182332	          0.07347245	          0.07629542	          0.07398452	          0.26118787	          0.34659562	          0.38874886	          0.35805452	          0.38925503	          0.50834810	          0.05003705	          0.07998143	          0.17885503	          0.05000045	          0.05000019	          0.05000063	          0.05000025	          0.05929713	          0.07032272	          0.05000251	          0.05000046	          0.05000080	          0.05005088	          0.05000117	          0.05000129	          0.13653102	          0.05000041	          0.05000055	          0.05000020	          0.05000209	          0.08500781	          0.22800829	          0.17292825	          0.15007387	          0.15461376	          0.05000777	          0.07021940	          0.05626361	          0.05000118	          0.05000221	          0.11329135	          0.05000085	          0.05000051	          0.28961196	          0.09863760	          0.10036018	          0.05932502	          0.12370429	          0.13206361	          0.10682463	          0.07032286	          0.07032364	          0.07215745	          0.05929717	          0.05929716	          0.05929779	          0.64290371	          0.16495453	          0.12475828	          0.24570953	          0.74204396	          0.10810511	          0.05000007	          0.11577993	          0.08412697	
          0.02231279	         -2.92907211	         -2.45093354	          4.97138678	          0.03378692	          0.91628735	         -0.00168540	        -14.04499106	          0.12645366	          6.77172722	         23.53032838	          4.75802292	         -1.21988569	        -16.69083569	         -4.82795044	        -14.82746839	         -5.18434866	         -4.40809265	         -8.89949443	         16.44640929	          3.26733032	         18.57914092	         -2.38142866	         -0.61604981	          1.27581699	         -1.86498584	          3.23034463	        -13.49516876	         14.70572925	         -8.83334556	        -13.45677776	          5.69265418	         35.27742261	         16.29152926	         86.51662706	         86.51662706	          0.26697006	          0.09023482	          0.05934114	          0.31490736	          0.15034567	          0.08638536	          0.05001157	          0.05000080	          0.05000086	          0.05000150	          0.07023644	          0.09507330	          0.05000253	          0.05000185	          0.05000393	          0.05002995	          0.25553444	          0.05931450	          0.05000220	          0.05000444	          0.05000309	          0.05000211	          0.21727313	          0.52545120	          0.05000061	          0.05000161	          0.05002353	          0.11729892	          0.07826033	          0.08424761	          0.08199943	          0.22260685	          0.29948304	          0.33811216	          0.30191676	          0.32822535	          0.42864647	          0.19383450	          0.20869096	          0.18138760	          0.44507272	          0.12674542	          0.05000060	          0.06340810	          0.05000015	          0.05929709	          0.25918574	          0.27218187	          0.29350911	          0.30392914	          0.24813729	          0.21234965	          0.12768670	          0.12958482	          0.09102903	          0.09941874	          0.05929842	          0.07167988	          0.19225979	          0.14581606	          0.12654502	          0.13836582	          0.05000206	          0.05921197	          0.13206536	          0.19611815	          0.13775168	          0.09552940	          0.05929632	          0.05929601	          0.24420499	          0.08317375	          0.08462652	          0.05002367	          0.10430924	          0.11135792	          0.09007607	          0.05929717	          0.05929784	          0.06084410	          0.05000020	          0.05000048	          0.05000092	          0.76231472	          0.13910652	          0.10774647	          0.56743414	          0.83193041	          0.33684402	          0.06681890	          0.11729657	          0.07093699	
          0.03346918	         -2.92605121	         -2.54458695	          5.03010973	          0.05068691	          0.91653492	         -0.00135683	        -13.74743119	         -0.09929943	          6.55247332	         22.78063938	          5.01683609	         -0.97868877	        -18.76244493	         -5.17202495	        -15.24858132	         -6.59873225	         -3.24523354	         -9.34338648	         14.04724762	          3.48843529	         21.82188612	         -2.57434804	         -0.44066745	          1.53854332	         -1.92491234	          2.96510898	        -13.50833483	         15.17217465	         -9.59229250	        -13.46114527	          5.66078577	         35.96881128	         16.06065093	         86.51662706	         86.51662706	          0.22511298	          0.07608731	          0.05003742	          0.26553468	          0.12677379	          0.07284150	          0.05005014	          0.05000187	          0.05000216	          0.05000069	          0.05922548	          0.17541885	          0.12510951	          0.10981201	          0.05292057	          0.09315253	          0.21577879	          0.05002116	          0.05000472	          0.05003458	          0.05002040	          0.05003408	          0.18320776	          0.48444934	          0.05000160	          0.05000534	          0.05000088	          0.09890828	          0.10061308	          0.10936939	          0.10384322	          0.18889188	          0.26137853	          0.28590280	          0.25680056	          0.27676408	          0.36144048	          0.32010275	          0.28943732	          0.15783523	          0.65245205	          0.24962977	          0.05000074	          0.09980507	          0.05000011	          0.05000029	          0.37297375	          0.39412849	          0.36872284	          0.26623537	          0.25434450	          0.23892141	          0.10766782	          0.11190867	          0.07741566	          0.08383128	          0.05000209	          0.06044166	          0.16211719	          0.18258005	          0.22032729	          0.19385334	          0.05000183	          0.05000699	          0.11136203	          0.28026683	          0.21553379	          0.19429002	          0.05000030	          0.05000031	          0.20591727	          0.07013403	          0.07135941	          0.05000043	          0.17647929	          0.19813700	          0.15054070	          0.05000023	          0.05000086	          0.05130456	          0.05220748	          0.05000463	          0.05000169	          0.86369372	          0.11729658	          0.09085332	          0.55863992	          0.84693910	          0.44226082	          0.08962349	          0.09890606	          0.05981503	
